<svg width="240" height="60" viewBox="0 0 1911 403" fill="none" xmlns="http://www.w3.org/2000/svg">
<path d="M653.755 329.1C639.455 349.9 621.355 368.3 599.255 384.3C590.055 391.1 583.055 394.6 578.455 394.6C576.155 394.6 574.255 393.8 572.755 392.1C571.255 390.4 570.555 388.5 570.555 386.2C570.555 383.9 571.555 381.6 573.555 379.4C575.555 377.1 578.555 375.2 582.555 373.5C597.055 367.3 610.255 358.3 622.255 346.6C634.255 334.9 643.555 322.5 650.255 309.4C656.955 296.3 660.355 284.8 660.355 274.9C660.355 271 659.455 268 657.655 266C655.855 264 652.955 263 648.955 263C640.155 263 631.155 266.5 621.855 273.6C612.655 280.7 604.055 289.9 596.055 301.3C589.955 310 584.055 320.5 578.455 332.7C572.755 344.9 568.455 357.9 565.555 371.6C563.855 378.9 560.355 382.5 554.855 382.5C553.355 382.5 551.855 381.2 550.155 378.6C548.455 376 547.655 373.7 547.655 371.6C547.655 347.5 546.855 312.2 545.155 265.5C543.455 218.8 542.355 192.2 541.655 185.6C541.655 184.4 541.555 183.2 541.355 182C541.155 180.9 540.955 179.8 540.755 178.7C540.555 177.5 540.355 176.2 540.155 174.8C539.955 173.5 539.855 172.2 539.855 170.9C539.855 166.1 542.055 163.7 546.455 163.7C550.055 163.7 552.955 165.9 555.155 170.4C557.355 174.9 558.455 179.9 558.455 185.5V202C558.455 251.4 559.155 289.3 560.655 315.8C561.455 328.9 562.355 336.1 563.155 337.6C565.455 330.8 569.055 323.1 574.055 314.6C578.955 306.1 584.155 298.2 589.655 291C599.555 277.7 610.255 267.1 621.755 259.1C633.255 251.1 643.755 247.1 653.255 247.1C659.755 247.1 665.055 249.2 669.155 253.3C673.255 257.5 675.255 263.5 675.255 271.3C675.155 289 667.955 308.3 653.755 329.1Z" fill="#2C2B27"/>
<path d="M821.155 317.1C821.155 320.8 818.355 329 812.855 341.7C807.255 354.4 798.855 366.1 787.655 376.9C776.455 387.7 762.655 393.1 746.255 393.1C732.855 393.1 721.555 389 712.555 380.7C703.555 372.4 699.055 359.7 699.055 342.4C699.055 326.2 702.855 310.2 710.355 294.3C717.955 278.4 727.755 265.5 739.955 255.4C752.155 245.3 764.755 240.3 777.755 240.3C785.555 240.3 792.055 242 797.455 245.4C802.855 248.8 805.455 253.7 805.455 260.2C805.455 267.5 801.355 274.5 793.055 281.4C784.755 288.2 774.055 294.3 760.755 299.4C747.555 304.6 733.855 308.3 719.855 310.6C717.355 320.1 716.055 329.5 716.055 338.6C716.055 350.6 718.955 360 724.755 366.6C730.555 373.2 738.755 376.6 749.455 376.6C765.655 376.6 778.755 370.9 788.755 359.5C798.855 348.1 807.255 335.2 813.955 320.9C814.355 320.1 815.155 318.5 816.155 316.1C817.155 313.7 818.155 312.5 818.955 312.5C820.455 312.5 821.155 314 821.155 317.1ZM786.055 255.9C782.555 254 778.555 253.1 773.955 253.1C765.955 253.1 758.355 255.7 750.955 260.9C743.655 266.1 737.455 272.3 732.555 279.6C727.655 286.9 724.455 293.3 722.955 298.9C732.555 297.9 742.755 295.2 753.455 290.8C764.155 286.4 773.155 281.7 780.355 276.5C787.555 271.3 791.255 267.1 791.255 263.7C791.255 260.3 789.555 257.7 786.055 255.9Z" fill="#2C2B27"/>
<path d="M978.855 376.4C980.355 378 981.055 379.3 981.055 380.3C981.055 382.8 979.955 385.6 977.955 388.9C975.855 392.1 973.755 393.7 971.655 393.7C968.055 393.7 965.355 391.5 963.455 387.2C961.555 382.9 960.655 377.8 960.655 372C960.655 367 960.955 352.1 961.555 327.2L961.855 315.4C961.855 310.6 960.555 307.2 958.055 305.1C948.655 320.9 939.755 334.5 931.655 346.2C923.455 357.8 913.055 368.8 900.455 379C887.855 389.3 874.655 394.4 860.755 394.4C854.055 394.4 848.855 392.3 845.155 388.2C841.455 384.1 839.655 378.7 839.655 372C839.655 363.7 843.455 352.4 850.955 337.9C858.555 323.5 868.155 308.9 879.955 294C891.655 279.2 903.455 267 915.255 257.5C923.055 251.3 929.255 247.1 933.855 244.9C938.455 242.7 942.555 241.6 946.155 241.6C949.555 241.6 952.955 242.6 956.555 244.7C960.155 246.8 963.155 249.7 965.655 253.4C968.155 257.1 969.455 261.4 969.455 266.2C969.455 272.6 967.655 278.7 964.155 284.6L969.455 283C971.755 283 973.155 285.8 973.555 291.4C973.755 294.7 974.055 301.5 974.355 311.6C974.655 321.8 974.955 330.2 975.155 336.8C975.355 343.6 975.555 350.3 975.755 356.7C975.955 363.1 976.155 368.2 976.355 371.9C976.555 373.3 977.355 374.8 978.855 376.4ZM897.955 365C908.455 356.7 917.855 346.8 926.155 335.3C934.455 323.8 943.655 309.6 953.655 292.8C956.155 286.6 957.455 279.8 957.455 272.6C957.455 268.2 956.155 264.5 953.555 261.2C950.955 258 947.455 256.4 943.055 256.4C937.855 256.4 931.055 259.9 922.955 267C913.555 274.9 903.555 285.4 893.055 298.6C882.555 311.8 873.855 324.8 866.955 337.6C860.055 350.5 856.555 360.6 856.555 368.1C856.555 374.3 859.455 377.4 865.355 377.4C876.555 377.5 887.455 373.3 897.955 365Z" fill="#2C2B27"/>
<path d="M1116.55 267.2C1113.95 269.6 1111.65 270.8 1109.75 270.8C1108.25 270.8 1106.85 270.2 1105.45 268.9C1104.05 267.7 1102.55 265.9 1100.85 263.6C1099.35 261.5 1097.45 259.8 1095.05 258.3C1092.65 256.9 1090.15 256.1 1087.65 256.1C1081.55 256.1 1073.35 264 1063.05 279.9C1052.75 295.8 1042.65 315.7 1032.85 339.8C1033.05 344.6 1033.45 350.6 1033.95 357.8C1034.45 365.1 1034.85 370.5 1035.05 374L1035.95 386.4C1035.95 389.3 1035.35 391.8 1034.05 394C1032.75 396.2 1030.45 397.3 1027.15 397.3C1023.55 397.3 1021.25 392.6 1020.25 383.1C1019.15 373.7 1018.55 359.9 1018.35 341.9C1018.15 337.3 1017.95 330.8 1017.85 322.3C1017.75 313.8 1017.45 303.6 1017.05 291.8C1016.45 274 1016.15 261.2 1016.15 253.5C1016.15 248.7 1019.05 246.3 1024.95 246.3C1028.55 246.3 1030.65 247.8 1031.45 250.8C1032.15 253.8 1032.55 259.6 1032.55 268.1V317.6C1038.85 301.6 1045.65 287.8 1053.05 276.2C1060.35 264.6 1067.55 255.7 1074.65 249.6C1081.65 243.5 1087.95 240.4 1093.35 240.4C1097.95 240.4 1102.35 241.4 1106.55 243.5C1110.75 245.6 1114.15 248.2 1116.65 251.4C1119.15 254.6 1120.45 257.7 1120.45 260.6C1120.45 262.7 1119.15 264.8 1116.55 267.2Z" fill="#2C2B27"/>
<path d="M1255.55 179C1255.55 183.2 1255.35 191.3 1254.95 203.4C1254.55 215.5 1254.35 227.7 1254.35 240C1254.35 263.6 1254.85 287.7 1255.95 312.3C1256.95 336.9 1257.85 353 1258.45 360.7C1258.45 361.9 1258.55 363.3 1258.75 364.7C1258.95 366.2 1259.15 367.5 1259.35 368.7C1260.15 374.5 1260.65 378 1260.65 379.3C1260.65 381.4 1259.15 383.3 1256.05 385.2C1253.05 387.1 1250.65 388 1248.95 388C1246.65 388 1245.15 387.1 1244.35 385.4C1243.65 383.6 1243.25 381.2 1243.25 378.1C1243.25 366.7 1243.55 354.8 1244.15 342.3L1244.45 324.9C1244.45 319.1 1244.35 311.5 1244.15 302C1243.95 292.6 1243.65 284.6 1243.25 278.2C1232.55 312.2 1220.45 340.4 1206.85 362.7C1193.35 385 1178.65 396.1 1162.95 396.1C1155.85 396.1 1149.75 392.8 1144.85 386.1C1139.95 379.5 1137.45 369.9 1137.45 357.5C1137.45 341.1 1143.05 323.3 1154.25 304C1165.45 284.7 1178.25 268.1 1192.65 254.2C1207.05 240.3 1217.65 233.4 1224.55 233.4C1231.25 233.4 1234.65 235.6 1234.65 239.9C1234.65 242.8 1233.65 246.2 1231.65 250C1229.65 253.8 1227.45 257.3 1225.05 260.4C1222.65 263.5 1221.25 265.1 1220.75 265.1C1220.35 265.1 1219.85 264.9 1219.35 264.6C1218.85 264.3 1218.55 263.9 1218.55 263.5C1218.55 262.5 1219.05 260.7 1220.15 258.2C1221.15 255.7 1221.75 254.1 1221.75 253.2C1221.75 252.2 1221.65 251.4 1221.45 251C1221.25 250.6 1220.65 250.4 1219.55 250.4C1215.15 250.4 1207.25 256.4 1195.75 268.3C1184.35 280.2 1174.05 294.4 1165.05 310.8C1156.05 327.2 1151.55 342.4 1151.55 356.5C1151.55 361.5 1152.55 366.1 1154.65 370.5C1156.75 374.9 1160.25 377 1165.05 377C1180.35 377 1194.55 364.2 1207.75 338.6C1220.85 313 1232.25 283.9 1241.95 251.3L1241.35 225.2C1240.75 202.2 1240.45 189.9 1240.45 188.5C1240.45 176.1 1240.95 167.1 1242.05 161.7C1242.45 159.6 1242.95 158.2 1243.45 157.3C1243.95 156.5 1245.05 156.1 1246.75 156.1C1248.85 156.1 1250.95 156.8 1253.05 158.1C1255.15 159.5 1256.15 161.3 1256.15 163.5L1255.55 179Z" fill="#2C2B27"/>
<path d="M1313.15 201.7C1313.15 201.7 1309.65 201.7 1302.75 201.7C1299.15 201.7 1295.55 200.3 1291.85 197.3C1288.15 194.4 1286.35 192 1286.35 190.1C1286.35 187.8 1287.45 185.6 1289.65 183.6C1291.85 181.5 1294.15 180.5 1296.45 180.5C1299.55 181.5 1302.25 183.2 1304.35 185.5C1306.05 187.2 1307.95 189.3 1310.05 192C1312.15 194.7 1313.15 196.4 1313.15 197C1313.15 200.2 1313.15 201.7 1313.15 201.7ZM1318.35 397.5C1316.55 398.6 1314.55 399.1 1312.25 398.9C1309.35 398.7 1307.15 394 1305.75 384.9C1304.35 375.8 1302.95 358.5 1301.45 333C1300.65 316.2 1299.85 299.8 1299.25 283.7C1298.65 267.6 1298.15 255.2 1297.95 246.5C1297.95 244.2 1298.35 242.5 1299.05 241.4C1299.75 240.3 1301.15 239.7 1303.25 239.7C1308.05 239.7 1311.15 241.7 1312.35 245.6C1313.65 249.5 1314.25 257.1 1314.25 268.3L1313.95 305C1313.95 325.9 1314.55 342.7 1315.85 355.4C1315.85 356 1316.75 362.7 1318.65 375.3C1320.15 384 1320.85 389.8 1320.85 392.7C1320.95 394.8 1320.05 396.4 1318.35 397.5Z" fill="#2C2B27"/>
<path d="M1482.15 317.1C1482.15 320.8 1479.35 329 1473.85 341.7C1468.25 354.4 1459.85 366.1 1448.65 376.9C1437.45 387.7 1423.65 393.1 1407.25 393.1C1393.85 393.1 1382.55 389 1373.55 380.7C1364.55 372.4 1360.05 359.7 1360.05 342.4C1360.05 326.2 1363.85 310.2 1371.35 294.3C1378.95 278.4 1388.75 265.5 1400.95 255.4C1413.15 245.3 1425.75 240.3 1438.75 240.3C1446.55 240.3 1453.05 242 1458.45 245.4C1463.85 248.8 1466.45 253.7 1466.45 260.2C1466.45 267.5 1462.35 274.5 1454.05 281.4C1445.75 288.2 1435.05 294.3 1421.75 299.4C1408.55 304.6 1394.85 308.3 1380.85 310.6C1378.35 320.1 1377.05 329.5 1377.05 338.6C1377.05 350.6 1379.95 360 1385.75 366.6C1391.55 373.2 1399.75 376.6 1410.45 376.6C1426.65 376.6 1439.75 370.9 1449.75 359.5C1459.85 348.1 1468.25 335.2 1474.95 320.9C1475.35 320.1 1476.15 318.5 1477.15 316.1C1478.15 313.7 1479.15 312.5 1479.95 312.5C1481.45 312.5 1482.15 314 1482.15 317.1ZM1447.05 255.9C1443.55 254 1439.55 253.1 1434.95 253.1C1426.95 253.1 1419.35 255.7 1411.95 260.9C1404.65 266.1 1398.45 272.3 1393.55 279.6C1388.65 286.9 1385.45 293.3 1383.95 298.9C1393.65 297.9 1403.75 295.2 1414.45 290.8C1425.15 286.4 1434.15 281.7 1441.35 276.5C1448.55 271.3 1452.25 267.1 1452.25 263.7C1452.25 260.3 1450.55 257.7 1447.05 255.9Z" fill="#2C2B27"/>
<path d="M1619.65 179C1619.65 183.2 1619.45 191.3 1619.05 203.4C1618.65 215.5 1618.45 227.7 1618.45 240C1618.45 263.6 1618.95 287.7 1620.05 312.3C1621.05 336.9 1621.95 353 1622.55 360.7C1622.55 361.9 1622.65 363.3 1622.85 364.7C1623.05 366.2 1623.25 367.5 1623.45 368.7C1624.25 374.5 1624.75 378 1624.75 379.3C1624.75 381.4 1623.25 383.3 1620.15 385.2C1617.15 387.1 1614.75 388 1613.05 388C1610.75 388 1609.25 387.1 1608.45 385.4C1607.75 383.6 1607.35 381.2 1607.35 378.1C1607.35 366.7 1607.65 354.8 1608.25 342.3L1608.55 324.9C1608.55 319.1 1608.45 311.5 1608.25 302C1608.05 292.6 1607.75 284.6 1607.35 278.2C1596.65 312.2 1584.55 340.4 1570.95 362.7C1557.45 385 1542.75 396.1 1527.05 396.1C1519.95 396.1 1513.85 392.8 1508.95 386.1C1504.05 379.5 1501.55 369.9 1501.55 357.5C1501.55 341.1 1507.15 323.3 1518.35 304C1529.55 284.7 1542.35 268.1 1556.75 254.2C1571.15 240.3 1581.75 233.4 1588.65 233.4C1595.35 233.4 1598.75 235.6 1598.75 239.9C1598.75 242.8 1597.75 246.2 1595.75 250C1593.75 253.8 1591.55 257.3 1589.15 260.4C1586.75 263.5 1585.35 265.1 1584.85 265.1C1584.45 265.1 1583.95 264.9 1583.45 264.6C1582.95 264.3 1582.65 263.9 1582.65 263.5C1582.65 262.5 1583.15 260.7 1584.25 258.2C1585.25 255.7 1585.85 254.1 1585.85 253.2C1585.85 252.2 1585.75 251.4 1585.55 251C1585.35 250.6 1584.75 250.4 1583.65 250.4C1579.25 250.4 1571.35 256.4 1559.85 268.3C1548.45 280.2 1538.15 294.4 1529.15 310.8C1520.15 327.2 1515.65 342.4 1515.65 356.5C1515.65 361.5 1516.65 366.1 1518.75 370.5C1520.85 374.9 1524.35 377 1529.15 377C1544.45 377 1558.65 364.2 1571.85 338.6C1584.95 313 1596.35 283.9 1606.05 251.3L1605.45 225.2C1604.85 202.2 1604.55 189.9 1604.55 188.5C1604.55 176.1 1605.05 167.1 1606.15 161.7C1606.55 159.6 1607.05 158.2 1607.55 157.3C1608.05 156.5 1609.15 156.1 1610.85 156.1C1612.95 156.1 1615.05 156.8 1617.15 158.1C1619.25 159.5 1620.25 161.3 1620.25 163.5L1619.65 179Z" fill="#2C2B27"/>
<path d="M1777.75 317.1C1777.75 320.8 1774.95 329 1769.45 341.7C1763.85 354.4 1755.45 366.1 1744.25 376.9C1733.05 387.7 1719.25 393.1 1702.85 393.1C1689.45 393.1 1678.15 389 1669.15 380.7C1660.15 372.4 1655.65 359.7 1655.65 342.4C1655.65 326.2 1659.45 310.2 1666.95 294.3C1674.55 278.4 1684.35 265.5 1696.55 255.4C1708.75 245.3 1721.35 240.3 1734.35 240.3C1742.15 240.3 1748.65 242 1754.05 245.4C1759.45 248.8 1762.05 253.7 1762.05 260.2C1762.05 267.5 1757.95 274.5 1749.65 281.4C1741.35 288.2 1730.65 294.3 1717.35 299.4C1704.15 304.6 1690.45 308.3 1676.45 310.6C1673.95 320.1 1672.65 329.5 1672.65 338.6C1672.65 350.6 1675.55 360 1681.35 366.6C1687.15 373.2 1695.35 376.6 1706.05 376.6C1722.25 376.6 1735.35 370.9 1745.35 359.5C1755.45 348.1 1763.85 335.2 1770.55 320.9C1770.95 320.1 1771.75 318.5 1772.75 316.1C1773.75 313.7 1774.75 312.5 1775.55 312.5C1776.95 312.5 1777.75 314 1777.75 317.1ZM1742.65 255.9C1739.15 254 1735.15 253.1 1730.55 253.1C1722.55 253.1 1714.95 255.7 1707.55 260.9C1700.25 266.1 1694.05 272.3 1689.15 279.6C1684.25 286.9 1681.05 293.3 1679.55 298.9C1689.25 297.9 1699.35 295.2 1710.05 290.8C1720.75 286.4 1729.75 281.7 1736.95 276.5C1744.15 271.3 1747.85 267.1 1747.85 263.7C1747.75 260.3 1746.05 257.7 1742.65 255.9Z" fill="#2C2B27"/>
<path d="M1907.35 400.3C1905.25 402.1 1902.75 402.9 1899.75 402.9C1897.65 402.9 1895.85 402.4 1894.35 401.5C1892.85 400.6 1892.15 399.3 1892.15 397.6C1892.15 389.1 1892.75 375.9 1894.05 358.1C1895.35 339 1895.95 323.2 1895.95 310.5C1895.95 298.3 1895.55 288.3 1894.85 280.5C1894.15 272.7 1892.35 268.8 1889.65 268.8C1882.55 268.8 1874.65 277.6 1866.25 295.1C1857.75 312.6 1848.05 335.7 1837.15 364.3L1832.45 376.7C1831.65 378.8 1830.15 380.4 1828.25 381.7C1826.25 382.9 1824.25 383.6 1822.15 383.6C1819.65 383.6 1817.95 383.4 1817.15 383C1816.35 382.6 1815.75 381.3 1815.55 379.3L1813.05 353.8L1808.35 309C1806.85 291.2 1805.05 275.6 1802.95 262.3C1802.35 259.2 1802.05 256.8 1802.05 255.1C1802.05 252 1803.45 249.5 1806.15 247.5C1808.85 245.5 1812.05 244.5 1815.55 244.5C1817.65 244.5 1819.15 249.5 1820.15 259.4C1821.15 269.3 1822.05 285.4 1823.15 307.6L1824.45 324.1C1826.15 345 1827.05 358.3 1827.25 363.9C1827.85 362.7 1828.45 361.3 1828.95 359.7C1829.45 358.1 1830.15 356.4 1830.95 354.6C1842.25 325.6 1852.95 301.4 1862.85 282C1872.85 262.6 1882.45 252.9 1891.65 252.9C1898.15 252.9 1902.65 258.3 1905.05 269.2C1907.45 280.1 1908.95 294 1909.65 311C1910.25 329.9 1910.55 357.5 1910.55 393.7C1910.55 396.5 1909.45 398.6 1907.35 400.3Z" fill="#2C2B27"/>
<path d="M705.555 85.6C703.155 87.3 698.755 88.6 692.555 89.5C677.355 92.5 668.755 94.1 666.955 94.5L650.755 97.6C650.755 107.3 650.855 117.4 651.155 128C651.355 138.6 651.755 147.9 652.255 155.9C652.955 166.7 654.055 175 655.755 180.7C657.455 186.5 658.355 189.7 658.455 190.5C658.455 192.4 657.455 194.1 655.355 195.7C653.255 197.3 651.355 198.1 649.555 198.1C648.555 198.1 647.755 197.8 647.055 197.1C646.355 196.4 645.855 195.4 645.355 193.9C644.355 191.3 643.455 186.5 642.455 179.4C641.555 172.3 640.855 164.5 640.355 156C639.855 148.4 639.455 139.5 639.255 129.4C639.055 119.3 638.855 109.5 638.855 100C629.555 101.7 620.055 103.7 610.255 106.1C601.455 108.1 596.255 109.2 594.555 109.2C592.555 109.2 590.655 108.6 588.955 107.2C587.255 105.9 586.355 104.1 586.355 101.9C586.355 99.5 587.055 97.9 588.555 97.2C590.055 96.5 592.555 96.1 596.055 96.1C598.555 96.1 602.155 95.6 606.955 94.6C611.755 93.6 614.855 92.9 616.155 92.5C627.255 90.1 634.755 88.5 638.755 87.8C638.755 83.9 638.555 78.8 638.255 72.5C637.955 64 637.755 57.4 637.755 53C637.755 45.8 637.955 40.1 638.355 36.1C638.755 32.1 639.555 28.5 640.755 25.4C642.055 21.7 644.555 19.8 648.255 19.8C649.755 19.8 650.755 20.1 651.255 20.6C651.755 21.2 651.955 22.2 651.955 23.7C651.955 24.8 651.555 28.1 650.755 33.5C649.955 38.9 649.555 46 649.555 55C649.555 61.9 649.755 69.6 650.055 78.1L650.255 85.6C657.755 84.3 672.455 80.9 694.455 75.3C695.755 74.9 696.855 73.6 697.855 71.4C698.755 69.2 699.755 68.1 700.755 68.1C702.555 68.1 704.455 69.3 706.355 71.6C708.255 73.9 709.255 76.3 709.255 78.7C709.155 81.5 707.955 83.9 705.555 85.6Z" fill="#2C2B27"/>
<path d="M828.155 203.4C826.855 205 825.055 205.8 822.955 205.8C821.255 205.8 819.855 205.4 818.755 204.5C817.555 203.7 817.055 202.5 817.055 201L817.555 181.8C818.355 158.9 818.755 140.3 818.755 125.8C818.755 104.6 817.455 89.8 814.755 81.3C812.055 72.8 809.055 68.6 805.555 68.6C797.755 68.6 787.955 82.1 776.255 109.2C764.455 136.2 753.155 165.7 742.255 197.7C741.455 200.3 740.355 202.8 738.855 205.2C737.455 207.6 735.955 208.8 734.555 208.8C730.955 208.8 729.055 207.5 729.055 204.9C729.055 193.6 728.655 172.3 727.855 141.2C727.055 110.1 726.355 89.6 725.855 79.7C724.355 46.4 722.955 25.9 721.655 18.1C720.355 10.3 719.655 6.1 719.655 5.6C719.655 3.7 720.555 2.4 722.355 1.4C724.155 0.5 726.455 0 729.355 0C731.655 0 733.355 5.9 734.455 17.7C735.555 29.5 736.355 44.6 736.855 63L737.055 70.8C737.355 76.6 737.655 93.1 737.755 120.3C737.955 147.5 737.955 167.5 737.955 180.4C745.555 159 752.755 140 759.455 123.3C766.155 106.6 773.955 90.9 782.655 76.3C791.455 61.7 799.555 54.4 807.055 54.4C813.355 54.4 818.655 60.3 822.955 72.1C827.255 83.9 829.455 101.5 829.455 124.9C829.455 135.3 829.655 149.8 829.955 168.4L830.155 197.7C830.155 199.9 829.455 201.8 828.155 203.4Z" fill="#2C2B27"/>
<path d="M956.355 126.8C956.355 130.1 954.155 137.5 949.755 148.8C945.355 160.1 938.755 170.6 929.855 180.3C920.955 190 910.055 194.8 897.155 194.8C886.555 194.8 877.655 191.1 870.555 183.6C863.455 176.2 859.855 164.7 859.855 149.3C859.855 134.8 862.855 120.4 868.755 106.2C874.755 92 882.455 80.4 892.155 71.4C901.755 62.4 911.655 57.9 921.955 57.9C928.055 57.9 933.255 59.4 937.455 62.5C941.655 65.6 943.755 70 943.755 75.7C943.755 82.2 940.455 88.5 933.955 94.7C927.455 100.8 918.955 106.2 908.455 110.9C898.055 115.5 887.255 118.9 876.155 120.9C874.155 129.4 873.155 137.8 873.155 146C873.155 156.8 875.455 165.1 879.955 171.1C884.555 177 891.055 180 899.455 180C912.255 180 922.555 174.9 930.555 164.7C938.555 154.5 945.155 143 950.455 130.1C950.755 129.4 951.355 127.9 952.155 125.8C952.955 123.7 953.755 122.6 954.355 122.6C955.755 122.7 956.355 124.1 956.355 126.8ZM928.655 71.9C925.955 70.2 922.755 69.4 919.055 69.4C912.755 69.4 906.755 71.7 900.955 76.4C895.155 81 890.355 86.6 886.455 93.1C882.555 99.6 880.055 105.4 878.855 110.4C886.455 109.5 894.555 107.1 902.955 103.2C911.355 99.3 918.455 95 924.155 90.4C929.855 85.8 932.755 81.9 932.755 79C932.755 75.9 931.355 73.6 928.655 71.9Z" fill="#2C2B27"/>
<path d="M289.155 180.1L309.755 300.1H356.655C359.355 300.1 361.855 299 363.755 297C367.855 292.9 367.955 286.1 364.055 281.8C356.355 274.3 350.955 264.7 348.355 254C346.055 241.2 333.055 180.1 333.055 180.1H289.155Z" fill="#DB8758"/>
<path d="M246.155 180.1L266.755 300.1H313.855C316.555 300.1 319.055 299 320.955 297C325.055 292.9 325.155 286.1 321.255 281.8C313.555 274.3 308.155 264.7 305.555 254C303.255 241.2 290.255 180.1 290.255 180.1H246.155Z" fill="#F4A86C"/>
<path d="M137.555 172.3L158.155 292.3H205.055C207.755 292.2 210.255 291.2 212.155 289.2C216.255 285.1 216.355 278.3 212.455 274C204.755 266.5 199.355 256.9 196.755 246.2C194.455 233.4 181.455 172.3 181.455 172.3H137.555V172.3Z" fill="#DB8758"/>
<path d="M94.5546 172.3L115.155 292.3H162.255C164.955 292.2 167.455 291.2 169.355 289.2C173.455 285.1 173.555 278.3 169.655 274C161.955 266.5 156.555 256.9 153.955 246.2C151.655 233.4 138.655 172.3 138.655 172.3H94.5546V172.3Z" fill="#F4A86C"/>
<path d="M354.855 51.1C259.555 37.5 72.6546 138.5 43.8546 171.8C-0.74543 223.1 0.854563 277.1 22.3546 316.6C42.3546 353.7 97.2546 387.5 193.955 387.5C115.255 372.9 57.5546 308.7 87.0546 262.6C116.555 216.5 309.955 225.9 392.755 186.2L354.855 51.1Z" fill="#663325"/>
<path d="M291.454 130.9C291.454 130.8 295.755 114.4 319.155 97.5C319.155 97.5 293.154 90.2 279.354 75.7C279.354 75.7 299.355 60.9 319.755 58.7L303.255 25.9C396.155 25.9 442.255 39.6 477.555 81.2C480.955 85.1 484.054 89.3 487.154 93.6C493.654 89.2 499.955 84.2 505.755 78.7C505.755 158.4 430.054 208.6 366.954 227.2C366.954 227.2 358.255 198.8 368.255 178.4C366.855 179.1 341.254 192.1 325.854 188.8C325.854 188.8 323.055 159 333.755 143.2C333.755 143.2 307.354 150.7 291.454 130.9Z" fill="#F4A86C"/>
<path d="M392.455 88.7C399.634 88.7 405.455 82.6111 405.455 75.1C405.455 67.5889 399.634 61.5 392.455 61.5C385.275 61.5 379.455 67.5889 379.455 75.1C379.455 82.6111 385.275 88.7 392.455 88.7Z" fill="#663325"/>
<path d="M34.7546 170.4C-3.64539 217.2 -10.7454 271.9 16.0546 320.3C41.3546 367.1 108.055 395.1 194.255 395.1C197.955 395.1 201.055 392.4 201.755 388.5C202.555 384.2 199.655 380.1 195.555 379.3C147.455 370.4 104.455 341.1 91.0546 308.1C84.7546 294.8 85.7546 279 93.6546 266.8C95.9546 263.5 98.7546 260.7 102.055 258.5L108.055 293.4C108.655 297.3 111.855 300 115.555 300H205.455C210.155 300 214.455 298.1 217.755 294.8C224.855 287.6 225.155 275.7 218.255 268.2C213.155 262.5 206.255 253.9 204.455 244.4C204.055 242 203.155 237.7 202.055 232.2C214.155 230.5 226.655 228.8 238.955 227.2C256.355 224.9 274.055 222.5 291.255 219.9C295.055 238.1 297.555 250.3 298.255 255C300.155 264.7 304.555 273.6 310.855 281C312.555 283.2 314.255 285.2 315.955 287C316.755 287.8 316.855 289 316.355 290.1C315.955 291.1 314.955 291.8 313.855 291.8H272.955L265.055 245.8C264.155 241.7 260.355 238.9 256.355 239.6C252.255 240.3 249.455 244.4 250.055 248.7L259.055 301.3C259.655 305.2 262.855 307.9 266.555 307.9H356.455C360.955 307.9 365.455 306 368.755 302.7C375.855 295.5 376.155 283.7 369.255 276.2C362.655 269.7 357.855 261.4 355.455 252.4C354.055 245 349.455 222.9 346.655 209.6C349.655 208.8 352.655 208.1 355.555 207.3C355.955 214.8 357.155 222.2 359.255 229.3C360.355 232.6 363.255 234.9 366.555 234.9C367.155 234.9 367.955 234.8 368.655 234.6C392.355 227.7 415.155 217.3 436.155 203.8C436.255 203.7 436.355 203.7 436.455 203.6C439.955 201.2 440.855 196.2 438.655 192.6C436.355 189 431.655 187.9 428.155 190.3C410.655 201.5 391.755 210.5 372.155 217C370.555 208.1 369.255 193.2 374.755 181.8C375.955 179.5 375.955 176.8 374.855 174.5C373.055 170.6 368.455 169 364.655 171C354.655 176.3 343.855 179.7 332.855 181.2C332.855 171.3 333.955 156.1 339.755 147.5C341.055 145.6 341.355 143.1 340.855 140.8C339.755 136.6 335.555 134.1 331.555 135.2C330.655 135.4 312.755 140.2 300.155 129C305.755 118.9 313.655 110.3 323.155 103.9C324.655 102.8 325.755 101.2 326.155 99.4C327.255 95.1 324.755 90.8 320.755 89.6C310.655 86.5 301.055 82.1 292.155 76.4C300.855 71.2 310.355 67.8 320.155 66.3C321.155 66.2 321.955 65.8 322.855 65.4C326.555 63.4 327.955 58.6 325.955 54.7L322.055 46.9L315.655 33.5C401.855 34.7 443.255 49.5 475.955 91.1C456.555 103 435.755 112.2 414.155 118.4C410.255 119.5 407.855 123.6 408.755 127.8C409.755 132.1 413.755 134.7 417.855 133.8C444.055 126.5 468.955 114.9 491.855 99.5C493.555 98.3 495.355 97 497.055 95.8C492.955 122.6 479.155 147 456.155 168.7C453.155 171.7 452.755 176.6 455.655 179.9C458.455 183.1 463.255 183.4 466.355 180.5C497.355 151.4 513.655 116.1 513.655 78.3C513.655 76.4 512.855 74.6 511.755 73.1C508.955 69.8 504.155 69.5 501.055 72.4C497.155 75.9 493.155 79.2 488.955 82.4C451.655 34.1 403.555 17.6 303.455 17.6C302.155 17.6 300.955 17.9 299.855 18.5C296.155 20.5 294.755 25.4 296.755 29.3L304.255 44.3C236.655 54.4 149.255 93 89.9546 128.6L89.8546 128.7C86.2546 131 84.9546 135.9 87.1546 139.6C89.3546 143.3 93.9546 144.7 97.5546 142.4C148.155 111.8 220.055 79.1 281.055 64.8C277.355 67.1 275.255 68.7 274.855 68.9C274.555 69.2 274.255 69.5 273.855 69.8C270.955 72.9 270.955 78 273.855 81C282.555 89.3 292.555 95.6 303.555 100C288.355 114.4 284.755 126.9 284.255 128.5C283.655 131 284.155 133.7 285.755 135.8C294.755 146.6 307.855 152.6 321.455 152.3C318.355 164.5 317.355 176.9 318.355 189.4C318.555 192.9 321.055 195.8 324.355 196.4C326.455 196.9 328.455 197.1 330.555 197.1C301.555 203.1 268.955 207.4 237.055 211.6C182.955 218.8 134.055 225.2 104.755 239.2L104.555 239.3C95.1546 243.3 87.0546 249.7 80.8546 258.2C70.1546 274.9 68.6546 296.5 76.9546 314.6C86.4546 338 107.455 359.2 134.655 374.4C83.5546 365.2 45.5546 343.5 28.8546 312.6C5.85461 270.2 12.2546 222.1 46.2546 180.8L46.3546 180.7C49.0546 177.3 48.7546 172.3 45.4546 169.5C42.2546 166.7 37.4546 167 34.7546 170.4ZM306.155 218C315.155 216.5 323.955 214.8 332.355 213.1C335.155 226.3 339.755 248.3 341.055 255.5C343.455 269.1 352.355 280.1 358.755 287.3C359.555 288.1 359.755 289.5 359.255 290.5C358.855 291.6 357.855 292.2 356.755 292.2H331.655C332.655 286.4 330.755 280.6 326.955 276.4C325.455 274.7 323.955 273 322.555 271.2C318.055 266 314.755 259.5 313.255 252.6C312.055 246.7 309.055 231.8 306.155 218ZM205.155 284.4H180.055C181.055 278.7 179.255 272.8 175.355 268.6C174.955 268.1 174.755 267.8 174.355 267.5C168.055 261.4 163.755 253.5 161.555 244.9C161.355 243.5 161.055 241.7 160.555 239.4C168.855 237.8 177.755 236.3 186.855 234.9C187.955 240.6 188.955 245.1 189.355 247.7C191.855 261.3 200.655 272.3 207.055 279.5C207.855 280.3 208.055 281.5 207.555 282.7C207.255 283.7 206.155 284.4 205.155 284.4ZM116.055 251.5C125.655 247.8 135.655 244.8 145.755 242.5C146.155 244.5 146.555 246.4 146.755 247.6C149.355 259.1 154.955 269.5 162.955 277.8C163.255 278.1 163.855 278.8 164.455 279.5C165.255 280.3 165.355 281.5 164.855 282.6C164.355 283.7 163.455 284.3 162.355 284.3H121.555L116.055 251.5Z" fill="#072130"/>
<path d="M74.9546 156.7C75.0546 156.6 75.0546 156.6 75.1546 156.4C78.6546 154 79.4546 149 77.2546 145.4C75.0546 141.8 70.2546 140.9 66.7546 143.2C62.9546 145.8 59.4546 148.2 56.3546 150.6C52.8546 153.2 52.1546 158.1 54.5546 161.7C57.0546 165.3 61.6546 166.1 65.1546 163.6C68.1546 161.4 71.3546 159.1 74.9546 156.7Z" fill="#072130"/>
<path d="M194.455 105.9C183.655 110.4 172.555 115.4 161.755 120.7C157.855 122.5 156.255 127.3 157.955 131.3C159.655 135.4 164.255 137.1 168.055 135.3C178.755 130.2 189.555 125.3 200.255 120.8C204.055 119.2 205.855 114.6 204.355 110.6C202.855 106.4 198.355 104.3 194.455 105.9Z" fill="#072130"/>
<path d="M392.455 96.7C403.855 96.7 413.055 87 413.055 75.1C413.055 63.2 403.855 53.5 392.455 53.5C381.055 53.5 371.855 63.2 371.855 75.1C371.855 87 381.055 96.7 392.455 96.7ZM392.455 80.8C389.455 80.8 387.055 78.3 387.055 75.1C387.055 71.9 389.455 69.4 392.455 69.4C395.455 69.4 397.855 71.9 397.855 75.1C397.855 78.3 395.455 80.8 392.455 80.8Z" fill="#072130"/>
</svg>
