<?xml version="1.0" encoding="utf-8"?>
<!-- Generator: Adobe Illustrator 23.0.3, SVG Export Plug-In . SVG Version: 6.00 Build 0)  -->
<svg version="1.1" id="Layer_1" xmlns="http://www.w3.org/2000/svg" xmlns:xlink="http://www.w3.org/1999/xlink" x="0px" y="0px"
	 viewBox="0 0 1700.8 320.3" style="enable-background:new 0 0 1700.8 320.3;" xml:space="preserve">
<g>
	<path style="fill:#FFB43F;" d="M485.3,5c6.9-0.7,12.7-1.2,20.3-1.9c0,19.4,0,37.8,0,56.2c2.1,1.5,4.1,3,6.2,4.5
		c1.2-3.4,1.4-7.8,3.7-9.9c16.9-15.6,38.5-11.3,46.1,10.6c4.4,12.8,4.9,27.2,5.4,40.9c0.8,21.1,0.2,42.2,0.2,65.1
		c-7.3-0.3-13.5-0.6-21.9-1c0-23.3,0.1-45.5-0.1-67.6c-0.1-7.8,1-16.5-1.9-23.2c-2.9-6.6-10.3-15.4-15.7-15.5
		c-6.1,0-16.1,7.8-17.6,13.9c-3.4,14.4-3.2,29.8-3.7,44.8c-0.5,15.6-0.1,31.3-0.1,48.8c-7.5-0.5-13.7-0.9-20.9-1.4
		C485.3,114.3,485.3,60.8,485.3,5z"/>
	<path style="fill:#FFB43F;" d="M610.7,116.7c5.8,33.1,17.4,41.2,45.8,33.6c5,14-0.4,20.4-14.6,20.6c-3,0-6,0.1-9-0.2
		c-23.2-2.5-38.9-19.1-43.7-46.1c-6.4-36.4,2.7-66.2,23.8-75.8c14.7-6.7,29.5-6.7,42.1,4.9c11.7,10.8,14.6,24.7,9.9,39.8
		c-5,16.2-18.1,21.5-33.3,23.1C625.2,117.3,618.5,116.7,610.7,116.7z M610.2,98.5c21.6,4.7,31.9,1.1,33.6-12.4
		c1.3-10.4,1.3-21.5-12.4-24.1C618.4,59.6,610.6,72.8,610.2,98.5z"/>
	<path style="fill:#FFB43F;" d="M432,23.1c0.5,10.5,0.9,18.3,1.3,27.2c9.8,0,19.3,0,30.1,0c0,6.7,0,12.3,0,18.7c-10,0-19.3,0-30.4,0
		c0,24.2-1.4,47.7,0.4,70.9c1.6,21,17.3,12.2,29.8,10.8c4.8,12.3,0.5,18.4-12.6,20.1c-24,3.1-39.1-8.3-39.7-32.4
		c-0.7-32.6,0.4-65.2-0.6-97.8C409.8,24.3,421,26.4,432,23.1z"/>
	<path style="fill:#FFB43F;" d="M1097.2,159.5c0.1,12-8.7,20.6-21.1,20.2c-12.2-0.3-19.8-6.4-20.6-19c-0.7-11.7,8.5-20.2,21.1-20.1
		C1088.7,140.7,1097.1,148.3,1097.2,159.5z"/>
	<path style="fill:#FFB43F;" d="M163.8,176.5c1.4-3.7,2.9-7.5,5.1-13.3c5.1,6.2,8.9,10.9,14.2,17.4c-4.8,1.8-8.8,3.2-10,3.6
		c-3.7,8.6-7.5,15.3-9.3,22.5c-1.6,6.3-0.8,13.2-1,19.9c6.7,0.2,14.6,2.8,19.8,0.1c16.8-8.6,21.6-28.1,13.7-48.6
		c-6.6-17.1-24.9-27.9-43.4-24.3c-27.6,5.4-49.6,19.3-58.1,47.6c-7.6,25.1-2.6,49.2,17.2,67.1c22.5,20.4,49.5,25.4,78.2,14.8
		c33.8-12.5,60.5-52,61.5-89.1c1.1-41-20.9-77.2-56.5-93.2c-13.5-6-27.3-11.5-40.3-18.4c-16.1-8.6-21.6-21-18.2-36.6
		c3-13.6,14.6-22.4,31.7-24c21.5-2,25.7-1,32.1,8.1C213.8,18.5,199,9.8,196.8,0c16,1.7,24.3,20.4,13.3,32c-7,7.3-18.5,10.4-28.2,15
		c-4.8,2.3-9.8,3.9-14.8,5.9c4.4,4.5,8.1,10.2,13.4,13.1c17,9.4,35.9,15.7,51.6,26.8c40.6,28.7,57.2,79.6,44.6,129.9
		c-13.3,53.3-50.8,90.8-100.9,96.8c-41.3,4.9-76.3-10.5-100.6-44.7c-21.7-30.5-24.4-64.5-6.4-97.6c19.7-36.2,51.2-55.9,92.8-55.9
		c31,0,57.1,21.7,67.2,53.6c9.1,28.8-2,63.7-25.9,81.1c-19.9,14.6-54.9,8.9-71.7-11.6c-14.1-17.2-13-41.9,4.3-57.2
		c6.9-6.1,16.8-8.6,25.4-12.7C162,175.1,162.9,175.8,163.8,176.5z M197.2,34c-0.2-1.2-0.4-2.4-0.6-3.6c-7.2,0-14.3-0.2-21.5,0
		c-14,0.4-27.2,3.5-30.4,19.6c-3.1,15.6,8.4,22.9,20.1,28.7c12.8,6.3,26.4,10.9,39.1,17.1c37,18.2,60.1,61.3,56.4,104
		c-3.7,41.8-36.3,83.4-74.2,94.6c-42.8,12.6-88.6-11.1-100.2-51.9c-11.8-41.3,12.3-82.8,54.9-95c24.6-7,48,0.4,59,18.6
		c12.4,20.5,11.1,45.6-3.1,60.7c-11.1,11.9-27,15.5-36.9,8.4c-11.3-8.1-11.6-18.2-2-35.9c1.6-3,0.7-7.4,0.9-11.1
		c-4.4,0.3-9.6-0.9-13,1.1c-16.1,9.6-20.2,31.6-9.4,47.4c14.5,21.3,50.5,24.3,68.4,5.9c19.6-20.2,24.1-53.4,10.7-78.2
		c-14.1-26.1-41.9-39.3-70.8-33.6C93.4,141,57.8,190.8,68.2,238c11.1,50.2,64.6,84.1,115.4,71.4c47.3-11.8,74.6-44.6,85.4-90.8
		c10.9-46.5-2.7-86.8-39.9-116.3c-15.7-12.5-35.8-19.5-54.1-28.5c-9.5-4.6-19-9.3-16.5-21.8c2.2-11.3,11.4-13.8,21.9-14
		C185.9,37.8,191.6,35.4,197.2,34z"/>
</g>
<g>
	<path d="M353,131H377v89c10.3-17.3,25.2-26,44.5-26c14.9,0,27.9,6,38.8,17.9c11,11.9,16.4,26.1,16.4,42.5c0,16.4-5.4,30.7-16.2,43
		c-10.8,12.3-23.3,18.4-37.7,18.4c-9.2,0-18-2.5-26.3-7.4c-8.3-4.9-14.8-11.7-19.6-20.1v24.3H353V131z M451,254.3
		c0-10.5-3.8-19.6-11.3-27.1c-7.6-7.5-16.7-11.3-27.4-11.3c-10.4,0-19.3,3.8-26.9,11.4c-7.6,7.6-11.4,16.6-11.4,26.9
		c0,10.8,3.8,19.9,11.4,27.3c7.6,7.4,16.9,11.1,28,11.1c10.3,0,19.1-3.8,26.5-11.3C447.3,273.9,451,264.9,451,254.3z"/>
	<path d="M622.5,259.5H524c2.1,11.8,7,20.5,14.6,25.9c7.6,5.5,15.9,8.2,24.8,8.2c13.8,0,25.4-5.7,34.7-17.2l17.8,13.4
		c-13.3,17.3-31.2,25.9-53.6,25.9c-17.2,0-31.5-5.9-43.1-17.6c-11.6-11.7-17.3-26.3-17.3-43.8c0-16.3,5.9-30.5,17.6-42.4
		c11.7-12,26-18,42.9-18c16.6,0,30.8,6.1,42.7,18.3C616.8,224.3,622.7,240.1,622.5,259.5z M526.5,240H597
		c-7.8-15.9-19.4-23.8-34.7-23.8C545.6,216.3,533.7,224.2,526.5,240z"/>
	<path d="M747.7,197.1H772v115.4h-24.3v-22.9c-11.8,17.4-26.5,26.2-44.1,26.2c-15.2,0-28.2-6-39-17.9
		c-10.8-11.9-16.2-26.4-16.2-43.5c0-16.1,5.4-30.2,16.3-42.3c10.9-12.1,23.6-18.1,38.3-18.1c9,0,17.6,2.5,25.7,7.4
		c8.1,4.9,14.4,11.4,18.9,19.3V197.1z M751,255.2c0-10.5-3.8-19.6-11.4-27.1c-7.6-7.5-16.6-11.3-27.2-11.3
		c-10.3,0-19.2,3.7-26.9,11.2c-7.7,7.5-11.5,16.2-11.5,26.3c0,10.9,3.7,20.2,11.2,27.8c7.5,7.6,16.5,11.5,27.2,11.5
		c10.6,0,19.6-3.8,27.2-11.4C747.2,274.6,751,265.6,751,255.2z"/>
	<path d="M835.6,197.1v23.8c5.4-9.5,10.7-16.4,15.9-20.6c5.2-4.2,11.9-6.4,20.2-6.4c2.3,0,5.7,0.6,10.1,1.7l-7.4,24.3
		c-4.7-0.9-7.7-1.4-9.2-1.4c-8.2,0-15.1,2.9-20.6,8.6c-5.5,5.7-8.3,12.9-8.3,21.5v63.9h-24.3V197.1H835.6z"/>
	<path d="M1000.7,131h24.1v181.5h-23.8v-24.1c-11.5,18.2-26.5,27.3-45.1,27.3c-15,0-27.9-6-38.7-18c-10.7-12-16.1-26.5-16.1-43.4
		c0-16.5,5.5-30.7,16.4-42.6c10.9-11.9,24-17.8,39.1-17.8c9.1,0,17.5,2.5,25.3,7.6c7.8,5,14.1,11.6,18.8,19.7V131z M1003.5,254.6
		c0-10.4-3.8-19.3-11.4-26.9c-7.6-7.6-16.6-11.4-27-11.4c-10.8,0-20,3.7-27.5,11.1c-7.5,7.4-11.3,16.5-11.3,27.2
		c0,10.3,3.8,19.2,11.5,26.9c7.7,7.7,16.6,11.5,26.8,11.5c10.8,0,20-3.7,27.6-11.2C999.7,274.4,1003.5,265.3,1003.5,254.6z"/>
	<path d="M1064.3,197.1h24.1v115.4h-24.1V197.1z"/>
	<path d="M1240,259.5h-98.5c2.1,11.8,7,20.5,14.6,25.9c7.6,5.5,15.9,8.2,24.8,8.2c13.8,0,25.4-5.7,34.7-17.2l17.8,13.4
		c-13.3,17.3-31.2,25.9-53.6,25.9c-17.2,0-31.5-5.9-43.1-17.6c-11.6-11.7-17.3-26.3-17.3-43.8c0-16.3,5.9-30.5,17.6-42.4
		c11.7-12,26-18,42.9-18c16.6,0,30.8,6.1,42.7,18.3C1234.3,224.3,1240.2,240.1,1240,259.5z M1144,240h70.5
		c-7.8-15.9-19.4-23.8-34.7-23.8C1163.1,216.3,1151.2,224.2,1144,240z"/>
	<path d="M1364.7,131h24.1v181.5H1365v-24.1c-11.5,18.2-26.5,27.3-45.1,27.3c-15,0-27.9-6-38.7-18c-10.7-12-16.1-26.5-16.1-43.4
		c0-16.5,5.5-30.7,16.4-42.6c10.9-11.9,24-17.8,39.1-17.8c9.1,0,17.5,2.5,25.3,7.6c7.8,5,14.1,11.6,18.8,19.7V131z M1367.5,254.6
		c0-10.4-3.8-19.3-11.4-26.9c-7.6-7.6-16.6-11.4-27-11.4c-10.8,0-20,3.7-27.5,11.1c-7.5,7.4-11.3,16.5-11.3,27.2
		c0,10.3,3.8,19.2,11.5,26.9s16.6,11.5,26.8,11.5c10.8,0,20-3.7,27.6-11.2C1363.8,274.4,1367.5,265.3,1367.5,254.6z"/>
	<path d="M1541.3,259.5h-98.5c2.1,11.8,7,20.5,14.6,25.9c7.6,5.5,15.9,8.2,24.8,8.2c13.8,0,25.4-5.7,34.7-17.2l17.8,13.4
		c-13.3,17.3-31.2,25.9-53.6,25.9c-17.2,0-31.5-5.9-43.1-17.6c-11.6-11.7-17.3-26.3-17.3-43.8c0-16.3,5.9-30.5,17.6-42.4
		c11.7-12,26-18,42.9-18c16.6,0,30.8,6.1,42.7,18.3C1535.6,224.3,1541.4,240.1,1541.3,259.5z M1445.3,240h70.5
		c-7.8-15.9-19.4-23.8-34.7-23.8C1464.4,216.3,1452.5,224.2,1445.3,240z"/>
	<path d="M1564.7,312.5V197.1h23.8v19.2c7-7.7,13.3-13.4,19-17c5.7-3.6,12-5.4,19-5.4c10.4,0,19.4,3.5,26.8,10.4
		c7.4,6.9,11.1,15.2,11.1,24.9v83.4h-24.3v-76.2c0-6.2-2-11.4-6.1-15.5c-4.1-4.1-9.2-6.2-15.5-6.2c-8.1,0-15.1,3.4-21,10.3
		c-5.9,6.9-8.8,15.1-8.8,24.8v62.8H1564.7z"/>
</g>
</svg>
